<svg width="30" height="31" viewBox="0 0 30 31" fill="none" xmlns="http://www.w3.org/2000/svg">
<g clip-path="url(#clip0_297_116)">
<path d="M25 8H23.75V18C23.75 18.6875 23.1875 19.25 22.5 19.25H7.5V20.5C7.5 21.875 8.625 23 10 23H22.5L27.5 28V10.5C27.5 9.125 26.375 8 25 8ZM21.25 14.25V5.5C21.25 4.125 20.125 3 18.75 3H5C3.625 3 2.5 4.125 2.5 5.5V21.75L7.5 16.75H18.75C20.125 16.75 21.25 15.625 21.25 14.25Z" fill="white"/>
</g>
<defs>
<clipPath id="clip0_297_116">
<rect width="30" height="30" fill="white" transform="translate(0 0.5)"/>
</clipPath>
</defs>
</svg>
