<svg width="30" height="31" viewBox="0 0 30 31" fill="none" xmlns="http://www.w3.org/2000/svg">
<g clip-path="url(#clip0_323_488)">
<path d="M23.75 4.25H22.5V3C22.5 2.3125 21.9375 1.75 21.25 1.75C20.5625 1.75 20 2.3125 20 3V4.25H10V3C10 2.3125 9.4375 1.75 8.75 1.75C8.0625 1.75 7.5 2.3125 7.5 3V4.25H6.25C4.8625 4.25 3.7625 5.375 3.7625 6.75L3.75 24.25C3.75 25.625 4.8625 26.75 6.25 26.75H23.75C25.125 26.75 26.25 25.625 26.25 24.25V6.75C26.25 5.375 25.125 4.25 23.75 4.25ZM22.5 24.25H7.5C6.8125 24.25 6.25 23.6875 6.25 23V10.5H23.75V23C23.75 23.6875 23.1875 24.25 22.5 24.25ZM10 13H13.75C14.4375 13 15 13.5625 15 14.25V18C15 18.6875 14.4375 19.25 13.75 19.25H10C9.3125 19.25 8.75 18.6875 8.75 18V14.25C8.75 13.5625 9.3125 13 10 13Z" fill="white"/>
</g>
<defs>
<clipPath id="clip0_323_488">
<rect width="30" height="30" fill="white" transform="translate(0 0.5)"/>
</clipPath>
</defs>
</svg>
