<svg width="28" height="29" viewBox="0 0 28 29" fill="none" xmlns="http://www.w3.org/2000/svg">
<g clip-path="url(#clip0_297_119)">
<path d="M22.1667 3.99996H17.29C16.8 2.64663 15.5167 1.66663 14 1.66663C12.4833 1.66663 11.2 2.64663 10.71 3.99996H5.83333C4.55 3.99996 3.5 5.04996 3.5 6.33329V22.6666C3.5 23.95 4.55 25 5.83333 25H22.1667C23.45 25 24.5 23.95 24.5 22.6666V6.33329C24.5 5.04996 23.45 3.99996 22.1667 3.99996ZM14 3.99996C14.6417 3.99996 15.1667 4.52496 15.1667 5.16663C15.1667 5.80829 14.6417 6.33329 14 6.33329C13.3583 6.33329 12.8333 5.80829 12.8333 5.16663C12.8333 4.52496 13.3583 3.99996 14 3.99996ZM15.1667 20.3333H9.33333C8.69167 20.3333 8.16667 19.8083 8.16667 19.1666C8.16667 18.525 8.69167 18 9.33333 18H15.1667C15.8083 18 16.3333 18.525 16.3333 19.1666C16.3333 19.8083 15.8083 20.3333 15.1667 20.3333ZM18.6667 15.6666H9.33333C8.69167 15.6666 8.16667 15.1416 8.16667 14.5C8.16667 13.8583 8.69167 13.3333 9.33333 13.3333H18.6667C19.3083 13.3333 19.8333 13.8583 19.8333 14.5C19.8333 15.1416 19.3083 15.6666 18.6667 15.6666ZM18.6667 11H9.33333C8.69167 11 8.16667 10.475 8.16667 9.83329C8.16667 9.19163 8.69167 8.66663 9.33333 8.66663H18.6667C19.3083 8.66663 19.8333 9.19163 19.8333 9.83329C19.8333 10.475 19.3083 11 18.6667 11Z" fill="white"/>
</g>
<defs>
<clipPath id="clip0_297_119">
<rect width="28" height="28" fill="white" transform="translate(0 0.5)"/>
</clipPath>
</defs>
</svg>
