<svg width="18" height="16" viewBox="0 0 18 16" fill="none" xmlns="http://www.w3.org/2000/svg">
<g clip-path="url(#clip0_390_223)">
<path d="M13.8542 1.3125H10.8062C10.5 0.55125 9.69792 0 8.75 0C7.80208 0 7 0.55125 6.69375 1.3125H3.64583C2.84375 1.3125 2.1875 1.90312 2.1875 2.625V13.125C2.1875 13.8469 2.84375 14.4375 3.64583 14.4375H13.8542C14.6562 14.4375 15.3125 13.8469 15.3125 13.125V2.625C15.3125 1.90312 14.6562 1.3125 13.8542 1.3125ZM8.75 1.3125C9.15104 1.3125 9.47917 1.60781 9.47917 1.96875C9.47917 2.32969 9.15104 2.625 8.75 2.625C8.34896 2.625 8.02083 2.32969 8.02083 1.96875C8.02083 1.60781 8.34896 1.3125 8.75 1.3125ZM13.125 13.125H4.375C3.97396 13.125 3.64583 12.8297 3.64583 12.4688V3.28125C3.64583 2.92031 3.97396 2.625 4.375 2.625H5.10417V3.28125C5.10417 4.00313 5.76042 4.59375 6.5625 4.59375H10.9375C11.7396 4.59375 12.3958 4.00313 12.3958 3.28125V2.625H13.125C13.526 2.625 13.8542 2.92031 13.8542 3.28125V12.4688C13.8542 12.8297 13.526 13.125 13.125 13.125Z" fill="#323232"/>
</g>
<defs>
<clipPath id="clip0_390_223">
<rect width="17.5" height="15.75" fill="white"/>
</clipPath>
</defs>
</svg>
