<svg width="18" height="16" viewBox="0 0 18 16" fill="none" xmlns="http://www.w3.org/2000/svg">
<g clip-path="url(#clip0_390_204)">
<path d="M8.75 7.875C10.3615 7.875 11.6667 6.70031 11.6667 5.25C11.6667 3.79969 10.3615 2.625 8.75 2.625C7.13855 2.625 5.83334 3.79969 5.83334 5.25C5.83334 6.70031 7.13855 7.875 8.75 7.875ZM8.75 3.9375C9.55209 3.9375 10.2083 4.52812 10.2083 5.25C10.2083 5.97187 9.55209 6.5625 8.75 6.5625C7.94792 6.5625 7.29167 5.97187 7.29167 5.25C7.29167 4.52812 7.94792 3.9375 8.75 3.9375ZM8.75 8.53125C6.80313 8.53125 2.91667 9.41062 2.91667 11.1562V12.4688C2.91667 12.8297 3.2448 13.125 3.64584 13.125H13.8542C14.2552 13.125 14.5833 12.8297 14.5833 12.4688V11.1562C14.5833 9.41062 10.6969 8.53125 8.75 8.53125ZM13.125 11.8125H4.37501V11.1628C4.52084 10.6903 6.78125 9.84375 8.75 9.84375C10.7188 9.84375 12.9792 10.6903 13.125 11.1562V11.8125Z" fill="#323232"/>
</g>
<defs>
<clipPath id="clip0_390_204">
<rect width="17.5" height="15.75" fill="white"/>
</clipPath>
</defs>
</svg>
