<svg width="20" height="18" viewBox="0 0 20 18" fill="none" xmlns="http://www.w3.org/2000/svg">
<path d="M9.75 11.0227C11.068 11.0227 12.1364 10.0612 12.1364 8.875C12.1364 7.68884 11.068 6.72727 9.75 6.72727C8.43205 6.72727 7.36364 7.68884 7.36364 8.875C7.36364 10.0612 8.43205 11.0227 9.75 11.0227Z" stroke="#49454F" stroke-width="2" stroke-linecap="round" stroke-linejoin="round"/>
<path d="M15.6364 11.0227C15.5305 11.2387 15.4989 11.4782 15.5457 11.7104C15.5925 11.9427 15.7155 12.157 15.8989 12.3257L15.9466 12.3686C16.0945 12.5016 16.2119 12.6595 16.2919 12.8333C16.372 13.0072 16.4132 13.1935 16.4132 13.3816C16.4132 13.5698 16.372 13.7561 16.2919 13.9299C16.2119 14.1038 16.0945 14.2617 15.9466 14.3947C15.7988 14.5278 15.6234 14.6334 15.4302 14.7054C15.2371 14.7775 15.0301 14.8146 14.821 14.8146C14.612 14.8146 14.4049 14.7775 14.2118 14.7054C14.0187 14.6334 13.8432 14.5278 13.6955 14.3947L13.6477 14.3517C13.4603 14.1867 13.2221 14.0759 12.9641 14.0338C12.7061 13.9917 12.4399 14.0202 12.2 14.1155C11.9647 14.2062 11.7641 14.3569 11.6227 14.549C11.4814 14.741 11.4056 14.9661 11.4045 15.1965V15.3182C11.4045 15.6979 11.2369 16.0621 10.9386 16.3306C10.6402 16.5991 10.2356 16.75 9.81364 16.75C9.3917 16.75 8.98705 16.5991 8.68869 16.3306C8.39034 16.0621 8.22273 15.6979 8.22273 15.3182V15.2537C8.21657 15.0168 8.13134 14.787 7.97813 14.5942C7.82492 14.4014 7.61081 14.2545 7.36364 14.1727C7.12371 14.0774 6.85757 14.049 6.59953 14.0911C6.34149 14.1332 6.10338 14.2439 5.91591 14.409L5.86818 14.4519C5.72043 14.5851 5.54497 14.6907 5.35184 14.7627C5.1587 14.8348 4.95168 14.8719 4.74261 14.8719C4.53354 14.8719 4.32652 14.8348 4.13339 14.7627C3.94026 14.6907 3.7648 14.5851 3.61705 14.4519C3.46913 14.319 3.35178 14.161 3.27172 13.9872C3.19166 13.8134 3.15045 13.6271 3.15045 13.4389C3.15045 13.2508 3.19166 13.0644 3.27172 12.8906C3.35178 12.7168 3.46913 12.5589 3.61705 12.4259L3.66477 12.383C3.84815 12.2142 3.97117 11.9999 4.01796 11.7677C4.06475 11.5355 4.03316 11.2959 3.92727 11.08C3.82644 10.8683 3.65901 10.6877 3.4456 10.5605C3.23218 10.4333 2.9821 10.365 2.72614 10.3641H2.59091C2.16897 10.3641 1.76432 10.2132 1.46597 9.94472C1.16761 9.6762 1 9.31201 1 8.93227C1 8.55253 1.16761 8.18834 1.46597 7.91982C1.76432 7.65131 2.16897 7.50045 2.59091 7.50045H2.6625C2.92579 7.49491 3.18114 7.41821 3.39535 7.28032C3.60956 7.14243 3.77273 6.94973 3.86364 6.72727C3.96952 6.51134 4.00111 6.27182 3.95432 6.03958C3.90753 5.80734 3.78452 5.59304 3.60114 5.42432L3.55341 5.38136C3.40549 5.24839 3.28815 5.09047 3.20809 4.91665C3.12803 4.74283 3.08682 4.55652 3.08682 4.36835C3.08682 4.18019 3.12803 3.99387 3.20809 3.82005C3.28815 3.64623 3.40549 3.48832 3.55341 3.35534C3.70116 3.22222 3.87662 3.11661 4.06975 3.04455C4.26289 2.9725 4.46991 2.93541 4.67898 2.93541C4.88805 2.93541 5.09507 2.9725 5.2882 3.04455C5.48133 3.11661 5.65679 3.22222 5.80455 3.35534L5.85227 3.3983C6.03974 3.56334 6.27785 3.67405 6.5359 3.71616C6.79394 3.75827 7.06008 3.72984 7.3 3.63455H7.36364C7.59891 3.54379 7.79956 3.39311 7.94089 3.20104C8.08222 3.00897 8.15807 2.78389 8.15909 2.55352V2.43182C8.15909 2.05208 8.3267 1.68789 8.62506 1.41937C8.92341 1.15085 9.32806 1 9.75 1C10.1719 1 10.5766 1.15085 10.8749 1.41937C11.1733 1.68789 11.3409 2.05208 11.3409 2.43182V2.49625C11.3419 2.72662 11.4178 2.95169 11.5591 3.14377C11.7004 3.33584 11.9011 3.48652 12.1364 3.57727C12.3763 3.67257 12.6424 3.701 12.9005 3.65889C13.1585 3.61678 13.3966 3.50607 13.5841 3.34102L13.6318 3.29807C13.7796 3.16494 13.955 3.05933 14.1482 2.98728C14.3413 2.91522 14.5483 2.87813 14.7574 2.87813C14.9665 2.87813 15.1735 2.91522 15.3666 2.98728C15.5597 3.05933 15.7352 3.16494 15.883 3.29807C16.0309 3.43105 16.1482 3.58896 16.2283 3.76278C16.3083 3.9366 16.3495 4.12292 16.3495 4.31108C16.3495 4.49924 16.3083 4.68556 16.2283 4.85938C16.1482 5.0332 16.0309 5.19111 15.883 5.32409L15.8352 5.36705C15.6518 5.53577 15.5288 5.75007 15.482 5.98231C15.4353 6.21454 15.4668 6.45407 15.5727 6.67V6.72727C15.6736 6.93902 15.841 7.1196 16.0544 7.2468C16.2678 7.374 16.5179 7.44226 16.7739 7.44318H16.9091C17.331 7.44318 17.7357 7.59403 18.034 7.86255C18.3324 8.13107 18.5 8.49526 18.5 8.875C18.5 9.25474 18.3324 9.61893 18.034 9.88745C17.7357 10.156 17.331 10.3068 16.9091 10.3068H16.8375C16.5815 10.3077 16.3315 10.376 16.118 10.5032C15.9046 10.6304 15.7372 10.811 15.6364 11.0227Z" stroke="#49454F" stroke-width="2" stroke-linecap="round" stroke-linejoin="round"/>
</svg>
