<svg width="18" height="16" viewBox="0 0 18 16" fill="none" xmlns="http://www.w3.org/2000/svg">
<path d="M7.2625 4.1125C6.92125 4.45375 6.92125 4.99625 7.2625 5.3375L8.925 7H0.875C0.39375 7 0 7.39375 0 7.875C0 8.35625 0.39375 8.75 0.875 8.75H8.925L7.2625 10.4125C6.92125 10.7537 6.92125 11.2962 7.2625 11.6375C7.60375 11.9787 8.14625 11.9787 8.4875 11.6375L11.6287 8.49625C11.97 8.155 11.97 7.60375 11.6287 7.2625L8.4875 4.1125C8.14625 3.77125 7.60375 3.77125 7.2625 4.1125ZM15.75 14H9.625C9.14375 14 8.75 14.3938 8.75 14.875C8.75 15.3562 9.14375 15.75 9.625 15.75H15.75C16.7125 15.75 17.5 14.9625 17.5 14V1.75C17.5 0.7875 16.7125 0 15.75 0H9.625C9.14375 0 8.75 0.39375 8.75 0.875C8.75 1.35625 9.14375 1.75 9.625 1.75H15.75V14Z" fill="#49454F"/>
</svg>
